<?xml version="1.0" encoding="utf-8"?>
<!-- Generator: Adobe Illustrator 19.2.1, SVG Export Plug-In . SVG Version: 6.00 Build 0)  -->
<svg version="1.1" id="Layer_1" xmlns="http://www.w3.org/2000/svg" xmlns:xlink="http://www.w3.org/1999/xlink" x="0px" y="0px"
	 viewBox="0 0 256 256" style="enable-background:new 0 0 256 256;" xml:space="preserve">
<style type="text/css">
	.st0{fill:#ED6D62;}
	.st1{fill:#FFFFFF;}
</style>
<rect class="st0" width="256" height="256"/>
<path class="st1" d="M192.3,158.5c0,1.9-1.5,3.4-3.4,3.4h-13.5v13.5c0,1.9-1.5,3.4-3.4,3.4s-3.4-1.5-3.4-3.4v-13.5h-13.5
	c-1.9,0-3.4-1.5-3.4-3.4c0-1.9,1.5-3.4,3.4-3.4h13.5v-13.5c0-1.9,1.5-3.4,3.4-3.4s3.4,1.5,3.4,3.4v13.5h13.5
	C190.8,155.1,192.3,156.6,192.3,158.5z M216,158.5c0-24.3-19.7-44-44-44s-44,19.7-44,44s19.7,44,44,44S216,182.7,216,158.5z
	 M209.2,158.5c0,20.5-16.7,37.2-37.2,37.2s-37.2-16.7-37.2-37.2s16.7-37.2,37.2-37.2S209.2,137.9,209.2,158.5z M63.7,67.1
	c-1.9,0-3.4,1.5-3.4,3.4s1.5,3.4,3.4,3.4c1.9,0,3.4-1.5,3.4-3.4S65.6,67.1,63.7,67.1z M77.2,67.1c-1.9,0-3.4,1.5-3.4,3.4
	s1.5,3.4,3.4,3.4c1.9,0,3.4-1.5,3.4-3.4S79.1,67.1,77.2,67.1z M90.8,67.1c-1.9,0-3.4,1.5-3.4,3.4s1.5,3.4,3.4,3.4
	c1.9,0,3.4-1.5,3.4-3.4S92.6,67.1,90.8,67.1z M122.3,168.6H56.9c-9.3,0-16.9-7.6-16.9-16.9V70.5c0-9.3,7.6-16.9,16.9-16.9h108.3
	c9.3,0,16.9,7.6,16.9,16.9v38.3c-2.2-0.4-4.5-0.7-6.8-0.9V87.4H46.8v34.1H52v-16.9c0-1.9,1.5-3.4,3.4-3.4h33.8
	c1.9,0,3.4,1.5,3.4,3.4v16.9h5v-16.9c0-1.9,1.5-3.4,3.4-3.4h33.8c1.9,0,3.4,1.5,3.4,3.4v16.1c-2.6,2.3-4.9,4.8-6.9,7.6H46.8v23.5
	c0,5.6,4.6,10.2,10.2,10.2h64.5C121.6,164.1,121.8,166.4,122.3,168.6z M104.4,121.4h27.1v-13.5h-27.1V121.4z M58.8,121.4h27.1v-13.5
	H58.8V121.4z M46.8,80.6h128.6V70.5c0-5.6-4.6-10.2-10.2-10.2H56.9c-5.6,0-10.2,4.6-10.2,10.2V80.6z"/>
</svg>
